<?xml version="1.0" encoding="utf-8"?>
<svg viewBox="0 0 500 500" xmlns="http://www.w3.org/2000/svg" xmlns:xlink="http://www.w3.org/1999/xlink" xmlns:bx="https://boxy-svg.com">
  <defs>
    <linearGradient id="color-0-0" gradientUnits="userSpaceOnUse" x1="45.151" y1="-31.498" x2="45.151" y2="38.963" xlink:href="#color-0"/>
    <linearGradient id="color-0" bx:pinned="true">
      <stop style="stop-color: #de6161;" offset="0"/>
      <stop style="stop-color: #2657eb;" offset="1"/>
    </linearGradient>
    <linearGradient id="color-0-2" gradientUnits="userSpaceOnUse" x1="45.151" y1="-31.498" x2="45.151" y2="38.963" xlink:href="#color-0"/>
  </defs>
  <path d="M 5.523 0.697 Q 4.334 0.697 3.233 0.103 Q 2.133 -0.492 1.449 -1.36 Q 0.766 -2.229 0.766 -2.967 Q 0.766 -3.637 1.169 -4.033 Q 1.572 -4.43 2.256 -4.43 Q 2.707 -4.43 2.994 -4.143 Q 3.281 -3.855 3.637 -3.24 Q 3.965 -2.693 4.245 -2.345 Q 4.525 -1.996 4.997 -1.743 Q 5.469 -1.49 6.166 -1.49 Q 7.916 -1.49 8.955 -3.083 Q 9.994 -4.676 10.418 -7.889 Q 10.992 -12.25 11.348 -16.16 Q 11.703 -20.07 11.703 -21.205 Q 11.703 -21.793 12.202 -22.155 Q 12.701 -22.518 13.412 -22.518 Q 14.164 -22.518 14.588 -22.142 Q 15.012 -21.766 15.012 -21.219 Q 15.012 -20.891 14.807 -20.084 Q 14.574 -19.072 14.39 -18.143 Q 14.205 -17.213 13.986 -15.668 Q 13.768 -14.164 13.385 -10.746 L 13.098 -8.285 Q 12.742 -5.387 11.908 -3.418 Q 11.074 -1.449 9.516 -0.376 Q 7.957 0.697 5.523 0.697 Z M 33.181 -15.996 Q 33.181 -13.631 31.363 -11.826 Q 29.544 -10.021 26.824 -9.023 Q 24.103 -8.025 21.492 -7.902 Q 21.109 -4.826 20.938 -3.254 Q 20.767 -1.682 20.767 -0.998 Q 20.767 -0.369 20.295 0.055 Q 19.824 0.479 19.085 0.479 Q 18.443 0.479 18.012 0.13 Q 17.582 -0.219 17.582 -0.752 Q 17.582 -0.875 17.595 -0.943 Q 17.609 -1.066 17.718 -1.586 Q 18.074 -3.336 18.436 -5.366 Q 18.798 -7.396 19.167 -10.322 Q 19.4 -12.264 19.619 -13.822 Q 19.687 -14.328 19.954 -16.447 Q 20.22 -18.566 20.302 -19.551 L 20.138 -19.523 Q 19.55 -19.523 19.188 -19.927 Q 18.826 -20.33 18.826 -20.932 Q 18.826 -21.82 19.701 -22.23 Q 20.576 -22.641 22.271 -22.641 Q 24.964 -22.641 27.412 -22.073 Q 29.859 -21.506 31.52 -20.022 Q 33.181 -18.539 33.181 -15.996 Z M 21.792 -10.268 Q 23.447 -10.391 25.511 -11.102 Q 27.576 -11.812 29.073 -13.084 Q 30.57 -14.355 30.57 -16.051 Q 30.57 -18.006 28.697 -18.963 Q 26.824 -19.92 23.173 -19.92 L 23.037 -19.92 Q 22.544 -16.475 21.792 -10.295 L 21.792 -10.268 Z M 52.637 -11.566 Q 52.637 -8.709 51.734 -6.234 Q 50.832 -3.76 49.205 -2.064 Q 49.875 -1.121 50.217 -0.458 Q 50.558 0.205 50.558 0.656 Q 50.558 1.203 50.244 1.565 Q 49.93 1.928 49.437 1.928 Q 48.863 1.928 48.453 1.538 Q 48.043 1.148 47.605 0.383 Q 47.359 -0.027 47.113 -0.396 Q 45.09 0.752 42.738 0.752 Q 40.578 0.752 38.883 -0.273 Q 37.187 -1.299 36.244 -3.097 Q 35.301 -4.895 35.301 -7.123 Q 35.301 -10.965 36.613 -14.622 Q 37.926 -18.279 40.223 -20.583 Q 42.519 -22.887 45.295 -22.887 Q 47.496 -22.887 49.164 -21.403 Q 50.832 -19.92 51.734 -17.343 Q 52.637 -14.766 52.637 -11.566 Z M 42.547 -1.559 Q 44.174 -1.559 45.555 -2.379 Q 45.267 -2.707 45.254 -2.721 Q 44.625 -3.404 44.181 -4.047 Q 43.736 -4.689 43.736 -5.195 Q 43.736 -5.715 44.092 -6.036 Q 44.447 -6.357 45.076 -6.357 Q 45.445 -6.357 45.78 -6.159 Q 46.115 -5.961 46.525 -5.517 Q 46.935 -5.072 47.578 -4.238 Q 48.631 -5.646 49.205 -7.574 Q 49.779 -9.502 49.779 -11.621 Q 49.779 -14.26 49.287 -16.283 Q 48.795 -18.307 47.797 -19.455 Q 46.799 -20.604 45.308 -20.604 Q 43.299 -20.604 41.644 -18.553 Q 39.99 -16.502 39.054 -13.378 Q 38.117 -10.254 38.117 -7.273 Q 38.117 -5.605 38.63 -4.313 Q 39.142 -3.021 40.141 -2.29 Q 41.139 -1.559 42.547 -1.559 Z M 67.798 -2.201 Q 68.618 -2.201 69.069 -1.866 Q 69.52 -1.531 69.52 -0.916 Q 69.52 -0.164 69.062 0.232 Q 68.604 0.629 67.798 0.629 Q 67.347 0.629 66.595 0.561 Q 64.681 0.424 62.657 0.424 Q 62.056 0.424 60.497 0.451 Q 58.556 0.479 57.134 0.479 L 57.106 0.479 L 57.079 0.479 Q 56.901 0.479 56.806 0.465 Q 56.245 0.396 55.972 0.068 Q 55.575 -0.328 55.575 -0.943 Q 55.575 -1.203 55.862 -2.529 Q 56.272 -4.457 56.594 -6.193 Q 56.915 -7.93 57.216 -10.322 Q 57.899 -15.654 58.139 -17.903 Q 58.378 -20.152 58.378 -20.986 Q 58.378 -21.711 58.856 -22.114 Q 59.335 -22.518 60.169 -22.518 Q 60.757 -22.518 61.126 -22.148 Q 61.495 -21.779 61.495 -21.246 Q 61.495 -21.041 61.42 -20.631 Q 61.345 -20.221 61.235 -19.687 Q 60.866 -17.937 60.504 -15.846 Q 60.141 -13.754 59.731 -10.445 Q 59.089 -5.373 58.774 -1.955 Q 59.102 -1.955 59.28 -1.941 Q 60.811 -1.914 62.384 -1.914 Q 63.737 -1.914 65.569 -2.078 Q 66.977 -2.201 67.798 -2.201 Z" transform="matrix(5.476369, 0, 0, 7.55667, 37.064556, 224.053024)" style="fill: url(#color-0-0); paint-order: fill; white-space: pre; opacity: 0.84;"/>
  <path transform="matrix(5.476369, 0, 0, 7.55667, 37.064556, 224.053024)" style="fill: rgb(156, 69, 231); paint-order: fill; white-space: pre;"/>
  <path d="M 13.986 25.703 Q 14.588 25.703 14.964 26.086 Q 15.34 26.469 15.34 27.07 Q 15.34 27.727 14.916 28.171 Q 14.492 28.615 13.768 28.615 Q 13.357 28.615 11.895 28.52 Q 9.283 28.342 8.258 28.342 Q 7.219 28.342 6.002 28.376 Q 4.785 28.41 4.334 28.424 Q 2.803 28.479 2.488 28.479 Q 1.6 28.479 1.101 28.171 Q 0.602 27.863 0.602 26.975 Q 0.602 25.908 1.531 24.452 Q 2.461 22.996 4.204 21.362 Q 5.947 19.729 8.285 18.143 Q 10.582 16.584 11.888 15.34 Q 13.193 14.096 13.72 13.05 Q 14.246 12.004 14.246 10.938 Q 14.246 9.871 13.774 9.071 Q 13.303 8.271 12.407 7.834 Q 11.512 7.396 10.268 7.396 Q 9.119 7.396 8.299 7.656 Q 7.479 7.916 6.754 8.572 Q 6.029 9.229 5.291 10.418 Q 5.031 10.814 4.648 11.04 Q 4.266 11.266 3.76 11.266 Q 3.281 11.266 2.939 10.938 Q 2.598 10.609 2.598 10.131 Q 2.598 9.516 2.98 8.955 Q 4.307 7.014 6.289 6.063 Q 8.271 5.113 10.555 5.113 Q 12.441 5.113 13.897 5.858 Q 15.354 6.604 16.153 7.93 Q 16.953 9.256 16.953 10.951 Q 16.953 12.277 16.283 13.563 Q 15.613 14.848 14.191 16.256 Q 12.77 17.664 10.432 19.359 Q 7.615 21.41 6.022 22.969 Q 4.43 24.527 3.65 26.018 Q 5.264 26.018 6.043 26.004 L 8.504 25.99 Q 9.775 25.99 11.635 25.826 Q 11.867 25.813 12.612 25.758 Q 13.357 25.703 13.986 25.703 Z M 34.343 28.752 Q 32.497 28.752 30.829 28.226 Q 29.161 27.699 28.156 26.858 Q 27.151 26.018 27.151 25.115 Q 27.151 24.541 27.527 24.117 Q 27.903 23.693 28.395 23.693 Q 28.819 23.693 29.188 23.898 Q 29.557 24.104 30.118 24.555 Q 30.829 25.102 31.417 25.457 Q 32.005 25.813 32.914 26.072 Q 33.823 26.332 35.054 26.332 Q 36.243 26.332 37.159 25.771 Q 38.075 25.211 38.567 24.288 Q 39.059 23.365 39.059 22.326 Q 39.059 21.355 38.554 20.59 Q 38.048 19.824 37.043 19.113 Q 36.038 18.402 34.274 17.459 Q 32.388 16.447 31.232 15.477 Q 30.077 14.506 29.537 13.46 Q 28.997 12.414 28.997 11.197 Q 28.997 9.406 29.906 8.025 Q 30.815 6.645 32.422 5.893 Q 34.028 5.141 36.024 5.141 Q 37.583 5.141 39.217 5.708 Q 40.85 6.275 41.924 7.123 Q 42.997 7.971 42.997 8.723 Q 42.997 9.379 42.628 9.81 Q 42.259 10.24 41.657 10.24 Q 41.192 10.24 40.789 10.008 Q 40.386 9.775 39.798 9.283 Q 39.141 8.75 38.615 8.422 Q 38.089 8.094 37.323 7.848 Q 36.557 7.602 35.559 7.602 Q 33.768 7.602 32.688 8.388 Q 31.608 9.174 31.608 10.623 Q 31.608 11.895 32.716 13.002 Q 33.823 14.109 36.27 15.367 Q 38.212 16.365 39.394 17.343 Q 40.577 18.32 41.124 19.421 Q 41.671 20.521 41.671 21.902 Q 41.671 23.912 40.748 25.471 Q 39.825 27.029 38.157 27.891 Q 36.489 28.752 34.343 28.752 Z M 62.562 16.434 Q 62.562 19.291 61.659 21.766 Q 60.757 24.24 59.13 25.936 Q 59.8 26.879 60.142 27.542 Q 60.483 28.205 60.483 28.656 Q 60.483 29.203 60.169 29.565 Q 59.855 29.928 59.362 29.928 Q 58.788 29.928 58.378 29.538 Q 57.968 29.148 57.53 28.383 Q 57.284 27.973 57.038 27.604 Q 55.015 28.752 52.663 28.752 Q 50.503 28.752 48.808 27.727 Q 47.112 26.701 46.169 24.903 Q 45.226 23.105 45.226 20.877 Q 45.226 17.035 46.538 13.378 Q 47.851 9.721 50.147 7.417 Q 52.444 5.113 55.22 5.113 Q 57.421 5.113 59.089 6.597 Q 60.757 8.08 61.659 10.657 Q 62.562 13.234 62.562 16.434 Z M 52.472 26.441 Q 54.099 26.441 55.48 25.621 Q 55.192 25.293 55.179 25.279 Q 54.55 24.596 54.106 23.953 Q 53.661 23.311 53.661 22.805 Q 53.661 22.285 54.017 21.964 Q 54.372 21.643 55.001 21.643 Q 55.37 21.643 55.705 21.841 Q 56.04 22.039 56.45 22.483 Q 56.86 22.928 57.503 23.762 Q 58.556 22.354 59.13 20.426 Q 59.704 18.498 59.704 16.379 Q 59.704 13.74 59.212 11.717 Q 58.72 9.693 57.722 8.545 Q 56.724 7.396 55.233 7.396 Q 53.224 7.396 51.569 9.447 Q 49.915 11.498 48.979 14.622 Q 48.042 17.746 48.042 20.727 Q 48.042 22.395 48.555 23.687 Q 49.067 24.979 50.065 25.71 Q 51.064 26.441 52.472 26.441 Z M 77.724 25.799 Q 78.544 25.799 78.995 26.134 Q 79.447 26.469 79.447 27.084 Q 79.447 27.836 78.989 28.232 Q 78.531 28.629 77.724 28.629 Q 77.273 28.629 76.521 28.561 Q 74.607 28.424 72.583 28.424 Q 71.982 28.424 70.423 28.451 Q 68.482 28.479 67.06 28.479 L 67.033 28.479 L 67.005 28.479 Q 66.827 28.479 66.732 28.465 Q 66.171 28.396 65.898 28.068 Q 65.501 27.672 65.501 27.057 Q 65.501 26.797 65.788 25.471 Q 66.199 23.543 66.52 21.807 Q 66.841 20.07 67.142 17.678 Q 67.826 12.346 68.065 10.097 Q 68.304 7.848 68.304 7.014 Q 68.304 6.289 68.783 5.886 Q 69.261 5.482 70.095 5.482 Q 70.683 5.482 71.052 5.852 Q 71.421 6.221 71.421 6.754 Q 71.421 6.959 71.346 7.369 Q 71.271 7.779 71.161 8.313 Q 70.792 10.063 70.43 12.154 Q 70.068 14.246 69.658 17.555 Q 69.015 22.627 68.701 26.045 Q 69.029 26.045 69.206 26.059 Q 70.738 26.086 72.31 26.086 Q 73.663 26.086 75.495 25.922 Q 76.904 25.799 77.724 25.799 Z" transform="matrix(5.476369, 0, 0, 7.55667, 37.064556, 224.053024)" style="fill: url(#color-0-2); paint-order: fill; white-space: pre; opacity: 0.84;"/>
</svg>